<?xml version="1.0" encoding="utf-8"?>
<!-- Generator: Adobe Illustrator 25.2.1, SVG Export Plug-In . SVG Version: 6.00 Build 0)  -->
<svg version="1.1" id="elements" xmlns="http://www.w3.org/2000/svg" xmlns:xlink="http://www.w3.org/1999/xlink" x="0px" y="0px"
	 viewBox="0 0 651.04 621.77" style="enable-background:new 0 0 651.04 621.77;" xml:space="preserve">
<style type="text/css">
	.st0{fill:#BF0B31;}
	.st1{clip-path:url(#SVGID_2_);}
	.st2{fill:#002768;}
	.st3{fill:#D70303;}
	.st4{fill:#FFFFFF;}
</style>
<g>
	<g>
		<path class="st0" d="M515.84,463.05c-1.65,4.14-8.46,5.51-11.52,9.1c-3.53,4.13-6.64,8.88-11.19,11.92
			c1.62-9.36,13.95-16.76,21.84-20.14C515.26,463.63,515.55,463.34,515.84,463.05z M487.01,489.32
			c-3.88,6.11-9.95,12.43-12.23,19.27c4.85-0.64,7.15-7.84,9.61-11.38C485.46,495.65,492.87,485.28,487.01,489.32z M487.01,489.32
			c-3.88,6.11-9.95,12.43-12.23,19.27c4.85-0.64,7.15-7.84,9.61-11.38C485.46,495.65,492.87,485.28,487.01,489.32z M472.16,513.84
			c-13.94,25.15-9.19,51.54,3.5,76.2c0-13.83-9.61-26.25-9.61-40.71c0-7.17,0.17-14.9,2.85-21.62
			C469.94,525.1,477.39,511.25,472.16,513.84z M472.16,513.84c-13.94,25.15-9.19,51.54,3.5,76.2c0-13.83-9.61-26.25-9.61-40.71
			c0-7.17,0.17-14.9,2.85-21.62C469.94,525.1,477.39,511.25,472.16,513.84z"/>
	</g>
	<g>
		<defs>
			<path id="SVGID_1_" d="M210.94,244.97c2.92-47.33,5.83-94.66,8.75-141.99c1.55-25.14,3.1-50.28,4.65-75.42
				c0.15-2.48-0.95-9.48,2.07-9.37c13.63,0.47,27.26,0.94,40.9,1.41c16.67,0.58,33.35,0.56,50.02,0.75
				c10.98,0.12,21.96,0.24,32.93,0.36c6.04,0.07,4.83,0.37,4.83,6.39c0,23.68,0,47.35,0,71.03c0,9.07,0,18.15,0,27.22
				c0,2.86,0.48,2.65,3.49,4.01c1.61,0.72,4.57-0.14,5.61,1.42c1.52,2.29,2.86,4.57,4.88,6.46c6.01-6.02,9.25-2.3,13.56,4.18
				c1.79,2.69,2.69,5.74,4.35,8.52c2.2,3.67,5.06,1.81,8.63,0.62c2.29-0.77,5.77,1.57,8.39,1.57c4.47,0,6.44-0.42,9.95,2.22
				c1.82,1.37,0.89,3.91,4.11,3.91c3.83,0,6.63-0.36,10.35-1.3c6.44-1.61,6.06,6.91,11.83,7.74c4,0.57,6.47-0.06,10.43-1.05
				c3.14-0.79,4.54,4.42,6.4,4.16c5.66-0.81,5.44-0.85,8.61,3.92c1.54,2.32,3.68,5.11,6.48,2.3c2.11-2.12,3.89-4.61,5.68-7.01
				c2.18-2.91,5.39,0.3,8.3,1.75c2.12-4.24,7.21-10.03,12.91-6.6c3.71,2.23,4.32,3.49,6.27,7.41c0.81,1.62,3.8,5.65,5.71,5.22
				c7.19-1.6,11.37-2.09,17.04-6.91c4.91-4.18,9.66-7.8,16.6-7.88c2.91-0.04,5.83,1.67,8.74,1.75c3.52,0.1,5.69-0.99,9.16-0.04
				c6.37,1.74,12.74,3.46,18.93,5.79c11.99,4.51,24.45,11.32,37.44,9.15c0.98,24.16,1.96,48.31,2.94,72.47
				c0.45,11.19,0.91,22.38,1.36,33.57c0.28,6.94,12.61,10.65,14.66,17.86c1.17,4.09,1.19,3.92-1.82,6.93
				c-1.26,1.26,1.43,4.34,2.43,5.59c3.89,4.87,2.06,9.59,0.23,15.1c-1.58,4.74-4.08,8.56-4.08,13.58c0,6.35,3.83,8.75,2.2,15.26
				c-0.98,3.93,1.03,26.34-3.42,26.34c-4.04,0-9.57-1.16-13.24,0.68c-6.54,3.28-13.07,6.55-19.61,9.83
				c-2.75,1.38-10.78,10.23-11.63,8.08c-1.71-4.3-1.35-3.78,2.46-6.32c2.94-1.96,5.12-2.9,3.93-7.01c-2.44,0.61-5.15,1.75-7.67,1.75
				c-4.9,0-3.68-1.03-3.68-5.84c0-5.98-12.12-3.64-15.19-1c-2.08,1.79-5.42,3.04-4.21,5.78c1.4,3.15,1.77,5.87,4.95,7.24
				c6.87,2.95,9.18,6.51,4.09,12.54c-4.97,5.89-7.13,8.5-8.87,15.88c-1.78,7.59-4.05,10.37-10.48,15.33
				c-9.63,7.41-20.97,13.19-31.45,19.27c3.02-3.54,6.04-7.07,9.07-10.6c2.27-2.66,1.07-7.19-2.72-6.43
				c-6.03,1.21-24.59,5.78-17.7-5.73c-3.09,3.1-12.49,8.09-15.98,3.89c-3.48-4.18-3.05-3.98-7.93-1.54c-3.59,1.8,3.6,5.81,4.55,6.47
				c0.97,0.68,8.11,2.67,8.01,2.56c1.61,1.95-0.24,6.42-1.6,8.05c-1.46,1.76-12.85,16.71-12.38,5.96c-4.9,1.01-6.63,8.49-1.75,10.51
				c-1.67,2.23-5.95,10.51-8.68,10.51c-5.09,0-3.38,0.49-4.42-3.5c-0.6-2.3,0-5.49,0-7.88c-1.81,1.42-1.67,7.87-2.14,7.94
				c-3.66,0.56-7.31,1.13-10.97,1.69c3.16,5.28,4.33,4.38,10.48,4.38c-1.01,5.55,0.38,9.63-5.6,9.63c-5.58,0-10.76-0.04-16.24,0.88
				c0.91,2.84,2.73,2.75,5.24,3.07c3.69,0.46,3.52,0.49,5.19,3.84c2.45,4.92,2.88,9.88-1.6,12.88c-3.53,2.36-11.46-0.18-11.46,4.3
				c0,3.65,3.23,1.35,3.55,3.46c0.49,3.19,0.98,6.37,1.47,9.56c1.35,8.78,1.86,18.2,4.89,26.57c1.3,3.59,13.29,29.04,5.81,28.29
				c4.22,2.01,9.31,8.26,8.74,13.14c-10.27-3.63-20.39-7.54-30.58-11.38c-9.98-3.76-20.77-3.54-29.55-9.71
				c-2.87-2.02-6.51-7.89-9.32-8.83c-6.45-2.16-10.17-4.54-15.65-8.66c-8.48-6.37-12.22-12.77-15.64-22.62
				c-3.57-10.3-5.79-20.19-13.67-28.09c-7.44-7.46-13.84-14.85-16.68-25.31c-1.19-4.38-1.72-12.63-4.56-16.19
				c-3.42-4.29-6.7-8.38-9.55-13.05c-5.01-8.22-13.84-19.56-15.61-29.01c-0.83-4.44-0.72-11.05-3.33-14.79
				c-3.36-4.8-6.46-8.77-10.59-12.91c-3.87-3.88-7.19-6.48-11.84-9.39c-5.89-3.69-8.96-1.31-13.13-7.58
				c-1.39-2.09-10.39-4.93-12.96-4.93c-5.85,0-11.7,0-17.54,0c-5.75,0-25.51-7.22-28.48,0.22c-4.13,10.35-7.75,19.88-13.63,29.31
				c-2.77,4.44-5.85,7.6-9.57,11.33c-3.45,3.46-11.03-3.7-13.98-5.47c-3.75-2.25-7.22-5.61-11.66-5.61c-5.63,0-11.15-2.22-16.6-3.5
				c-9.98-2.34-19.02-3.87-28.25-8.24c-11.3-5.35-21.38-9.1-30.17-17.92c-3.38-3.39-4.35-10.6-5.9-15.04
				c-1.8-5.15-5.73-7.97-9.08-12.23c-2.7-3.44-5.05-6.86-5.85-11.11c-0.88-4.62-0.76-12.19-3.53-16.07
				c-2.75-3.86-5.44-9.88-9.65-12.22c-6.59-3.67-7.83-6.24-11.57-12.9c-2.76-4.91-5.99-7.68-10.23-11.51
				c-3.29-2.97-3.27-8.3-6.35-11.67c-9.69-10.6-10.5-16.04-9.67-30.26c0.16-2.74,44.55-1.1,48.68-1.1
				C112.3,244.97,161.62,244.97,210.94,244.97z"/>
		</defs>
		<clipPath id="SVGID_2_">
			<use xlink:href="#SVGID_1_"  style="overflow:visible;"/>
		</clipPath>
		<g class="st1">
			<rect y="-8.85" class="st2" width="392.69" height="628.97"/>
			<rect x="392.69" y="297.17" class="st3" width="280.25" height="322.96"/>
			<rect x="392.69" y="-8.85" class="st4" width="280.25" height="306.02"/>
			<polygon class="st4" points="253.62,217.03 271.41,267.87 325.27,269.08 282.4,301.71 297.9,353.3 253.62,322.62 209.34,353.3 
				224.84,301.71 181.98,269.08 235.83,267.87 			"/>
		</g>
	</g>
</g>
</svg>
